<?xml version="1.0" encoding="UTF-8" standalone="no"?><!DOCTYPE svg PUBLIC "-//W3C//DTD SVG 1.1//EN" "http://www.w3.org/Graphics/SVG/1.1/DTD/svg11.dtd"><svg width="100%" height="100%" viewBox="0 0 461 60" version="1.1" xmlns="http://www.w3.org/2000/svg" xmlns:xlink="http://www.w3.org/1999/xlink" xml:space="preserve" xmlns:serif="http://www.serif.com/" style="fill-rule:evenodd;clip-rule:evenodd;stroke-linejoin:round;stroke-miterlimit:2;"><g><ellipse cx="71.474" cy="32.533" rx="21.145" ry="21.704" style="fill:#d7e5ff;"/><ellipse cx="68.341" cy="30.121" rx="21.145" ry="21.704" style="fill:#f54135;"/><ellipse cx="63.642" cy="26.906" rx="21.145" ry="21.704" style="fill:#e6ffea;"/><path d="M139.006,6.665c-0.753,0 -1.438,0.479 -1.917,1.096l-6.71,10.749c-0.411,0.548 -1.233,0.548 -1.37,-0.068l-2.875,-10.681c-0.137,-0.617 -0.753,-1.096 -1.438,-1.096l-10.681,0c-0.617,0 -1.301,0.342 -1.712,0.89c-0.411,0.479 -0.548,1.164 -0.479,1.712c1.438,5.067 3.149,10.818 4.656,16.432l2.875,10.202c0.137,0.616 0.206,1.301 0.069,1.986l-2.671,14.995c-0.068,0.479 0.069,0.89 0.343,1.3c0.274,0.274 0.685,0.48 1.164,0.48l9.928,-0c0.958,-0 1.917,-0.822 2.054,-1.78l2.739,-14.995c0.068,-0.685 0.342,-1.438 0.821,-2.054l17.049,-26.498c0.411,-0.616 0.411,-1.232 0.274,-1.78c-0.274,-0.548 -0.822,-0.89 -1.438,-0.89l-10.681,0Z" style="fill:#e6ffea;fill-rule:nonzero;"/><path d="M160.026,6.733c-0.959,0 -1.917,0.822 -2.123,1.781l-8.011,44.368c-0.068,0.479 0.069,0.958 0.343,1.3c0.274,0.343 0.684,0.548 1.164,0.548l23.553,0c0.959,0 1.917,-0.821 2.123,-1.848l1.78,-9.792c0.137,-0.479 -0,-0.89 -0.274,-1.3c-0.274,-0.343 -0.753,-0.48 -1.233,-0.48l-10.886,0c-0.616,0 -1.096,-0.547 -0.959,-1.232l0.274,-1.506c0.137,-0.617 0.753,-1.164 1.438,-1.164l7.258,-0c1.027,-0 1.985,-0.822 2.191,-1.849l1.711,-9.791c0.069,-0.479 -0.068,-0.959 -0.342,-1.301c-0.274,-0.342 -0.685,-0.548 -1.164,-0.548l-7.258,0c-0.616,0 -1.095,-0.548 -0.958,-1.164l0.205,-1.438c0.137,-0.684 0.753,-1.164 1.37,-1.164l10.886,0c1.027,0 1.986,-0.821 2.191,-1.848l1.78,-9.723c0.137,-0.548 0,-0.958 -0.273,-1.301c-0.343,-0.342 -0.754,-0.548 -1.233,-0.548l-23.553,0Z" style="fill:#e6ffea;fill-rule:nonzero;"/><path d="M216.581,6.733c-1.027,0 -1.985,0.822 -2.191,1.781l-2.328,13.488c-0.205,1.096 -1.232,1.917 -2.328,1.917l-4.382,0c-1.095,0 -1.848,-0.89 -1.643,-1.917l2.396,-13.42c0.137,-0.548 0,-0.958 -0.273,-1.301c-0.343,-0.342 -0.754,-0.548 -1.233,-0.548l-9.654,0c-1.027,0 -1.917,0.822 -2.191,1.781l-7.942,44.368c-0.069,0.479 0.068,0.958 0.342,1.3c0.274,0.343 0.685,0.548 1.164,0.548l9.654,0c0.959,0 1.917,-0.821 2.123,-1.848l2.464,-13.489c0.206,-1.095 1.233,-1.985 2.328,-1.985l4.382,-0c1.096,-0 1.849,0.89 1.644,1.985l-2.465,13.489c-0.069,0.479 0.068,0.958 0.342,1.3c0.274,0.343 0.685,0.548 1.164,0.548l9.586,0c1.027,0 1.985,-0.821 2.191,-1.848l8.011,-44.3c0.137,-0.548 -0,-0.958 -0.274,-1.301c-0.343,-0.342 -0.753,-0.548 -1.233,-0.548l-9.654,0Z" style="fill:#e6ffea;fill-rule:nonzero;"/><path d="M239.655,6.733c-1.027,0 -1.985,0.822 -2.191,1.781l-7.942,44.368c-0.069,0.479 0.068,0.958 0.342,1.3c0.274,0.343 0.685,0.548 1.164,0.548l9.586,0c1.027,0 1.985,-0.821 2.191,-1.848l7.942,-44.3c0.137,-0.548 0.069,-0.958 -0.274,-1.301c-0.342,-0.342 -0.684,-0.548 -1.164,-0.548l-9.654,0Z" style="fill:#e6ffea;fill-rule:nonzero;"/><path d="M262.661,6.733c-1.027,0 -1.986,0.822 -2.191,1.781l-7.943,44.368c-0.068,0.479 0.069,0.958 0.343,1.3c0.274,0.343 0.684,0.548 1.164,0.548l9.585,0c1.027,0 1.986,-0.821 2.191,-1.848l7.943,-44.3c0.137,-0.548 0.068,-0.958 -0.274,-1.301c-0.343,-0.342 -0.685,-0.548 -1.164,-0.548l-9.654,0Z" style="fill:#e6ffea;fill-rule:nonzero;"/><path d="M292.513,41.31c-0.821,0 -1.438,-0.753 -1.301,-1.574l5.615,-31.154c0.137,-0.548 -0,-0.958 -0.274,-1.301c-0.343,-0.342 -0.753,-0.548 -1.233,-0.548l-9.654,0c-1.027,0 -1.985,0.822 -2.191,1.781l-7.942,44.368c-0.069,0.479 0.068,0.958 0.342,1.3c0.274,0.343 0.685,0.548 1.164,0.548l23.143,0c1.027,0 1.985,-0.821 2.191,-1.848l1.711,-9.792c0.137,-0.479 0,-0.89 -0.273,-1.3c-0.274,-0.343 -0.754,-0.48 -1.233,-0.48l-10.065,0Z" style="fill:#f54135;fill-rule:nonzero;"/><path d="M320.038,6.733c-1.027,0 -1.986,0.822 -2.191,1.781l-7.943,44.368c-0.068,0.479 0.069,0.958 0.343,1.3c0.273,0.343 0.684,0.548 1.164,0.548l9.585,0c1.027,0 1.986,-0.821 2.191,-1.848l7.943,-44.3c0.137,-0.548 0.068,-0.958 -0.274,-1.301c-0.343,-0.342 -0.685,-0.548 -1.164,-0.548l-9.654,0Z" style="fill:#f54135;fill-rule:nonzero;"/><path d="M375.566,7.281c-0.342,-0.342 -0.753,-0.548 -1.232,-0.548l-9.655,0c-1.027,0 -1.985,0.822 -2.191,1.781l-2.122,12.187c-0.137,0.89 -1.301,1.233 -1.712,0.548l-7.258,-13.762c-0.273,-0.48 -0.821,-0.754 -1.369,-0.754l-6.984,0c-0.958,0 -1.917,0.822 -2.191,1.781l-7.942,44.368c-0.069,0.479 0.068,0.958 0.342,1.3c0.274,0.343 0.685,0.548 1.164,0.548l9.654,0c1.027,0 1.986,-0.821 2.191,-1.848l2.328,-12.804c0.137,-0.822 1.301,-1.164 1.643,-0.479l7.601,14.31c0.273,0.479 0.821,0.821 1.369,0.821l6.436,0c1.027,0 1.986,-0.821 2.191,-1.848l7.942,-44.3c0.137,-0.548 0.069,-0.958 -0.205,-1.301Z" style="fill:#f54135;fill-rule:nonzero;"/><path d="M402.132,30.698c-0.342,-0.822 -0.137,-1.918 0.548,-2.739l15.131,-18.487c0.411,-0.548 0.616,-1.301 0.411,-1.848c-0.274,-0.617 -0.822,-0.959 -1.506,-0.959l-10.613,0c-0.685,0 -1.369,0.342 -1.712,0.959l-5.819,7.874c-0.343,0.479 -1.028,0.273 -0.959,-0.274l1.164,-6.642c0.137,-0.548 0.068,-0.958 -0.274,-1.301c-0.342,-0.342 -0.685,-0.548 -1.232,-0.548l-9.586,0c-1.027,0 -1.986,0.822 -2.191,1.781l-7.942,44.368c-0.069,0.479 0.068,0.958 0.342,1.3c0.274,0.343 0.616,0.548 1.164,0.548l9.586,0c1.027,0 1.985,-0.821 2.191,-1.848l1.163,-6.437c0.069,-0.479 0.822,-0.684 1.028,-0.273l3.286,7.668c0.205,0.548 0.822,0.822 1.369,0.89l11.777,0.069c0.685,-0 1.369,-0.343 1.712,-0.89c0.479,-0.617 0.616,-1.301 0.342,-1.849l-9.38,-21.362Z" style="fill:#f54135;fill-rule:nonzero;"/></g></svg>