<?xml version="1.0" encoding="UTF-8" standalone="no"?><!DOCTYPE svg PUBLIC "-//W3C//DTD SVG 1.1//EN" "http://www.w3.org/Graphics/SVG/1.1/DTD/svg11.dtd"><svg width="100%" height="100%" viewBox="0 0 120 120" version="1.1" xmlns="http://www.w3.org/2000/svg" xmlns:xlink="http://www.w3.org/1999/xlink" xml:space="preserve" xmlns:serif="http://www.serif.com/" style="fill-rule:evenodd;clip-rule:evenodd;stroke-linejoin:round;stroke-miterlimit:2;"><path d="M92.393,92.393c-3.708,3.707 -7.951,6.709 -12.63,8.951c3.404,-4.532 6.244,-10.206 8.295,-16.676l10.558,0c-1.776,2.777 -3.855,5.364 -6.223,7.725m-71.009,-7.725l10.558,0c2.051,6.47 4.884,12.144 8.295,16.676c-4.687,-2.242 -8.929,-5.244 -12.63,-8.951c-2.368,-2.369 -4.447,-4.948 -6.223,-7.725m6.223,-57.061c3.708,-3.707 7.951,-6.709 12.63,-8.951c-3.404,4.532 -6.244,10.206 -8.295,16.676l-10.558,-0c1.776,-2.777 3.855,-5.364 6.223,-7.725m71.009,7.725l-10.558,-0c-2.051,-6.47 -4.884,-12.144 -8.295,-16.676c4.687,2.242 8.929,5.244 12.63,8.951c2.368,2.369 4.447,4.948 6.223,7.725m-6.97,21.144c-0.198,-4.912 -0.79,-9.642 -1.734,-14.096l12.39,-0c1.882,4.504 3.01,9.226 3.376,14.096l-14.032,-0Zm-28.122,21.144l-0,-14.096l21.066,-0c-0.204,4.863 -0.845,9.585 -1.902,14.096l-19.164,-0Zm12.863,16.133c-2.369,3.954 -5.174,7.132 -8.099,9.19c-1.564,1.1 -3.15,1.889 -4.757,2.354l0,-20.629l17.098,0c-1.184,3.313 -2.6,6.35 -4.242,9.085m-19.911,-9.085l-0,20.629c-1.607,-0.465 -3.2,-1.254 -4.757,-2.354c-2.925,-2.065 -5.73,-5.243 -8.099,-9.19c-1.642,-2.735 -3.058,-5.772 -4.242,-9.085l17.098,0Zm-21.066,-21.144l21.066,0l-0,14.096l-19.164,0c-1.057,-4.511 -1.698,-9.233 -1.902,-14.096m-17.712,14.096c-1.875,-4.504 -3.01,-9.226 -3.376,-14.096l14.032,0c0.198,4.912 0.79,9.642 1.734,14.096l-12.39,0Zm38.778,-35.24l-0,14.096l-21.066,0c0.204,-4.863 0.845,-9.585 1.902,-14.096l19.164,0Zm-12.856,-16.133c2.369,-3.954 5.174,-7.132 8.099,-9.19c1.564,-1.1 3.15,-1.889 4.757,-2.354l-0,20.629l-17.098,0c1.184,-3.313 2.6,-6.35 4.235,-9.085l0.007,0Zm19.904,9.085l-0,-20.629c1.607,0.465 3.2,1.254 4.757,2.354c2.925,2.065 5.73,5.243 8.099,9.19c1.642,2.735 3.058,5.772 4.235,9.085l-17.098,0l0.007,0Zm19.164,7.048c1.057,4.511 1.698,9.233 1.902,14.096l-21.066,0l-0,-14.096l19.164,0Zm-52.6,0c-0.944,4.454 -1.543,9.184 -1.734,14.096l-14.032,0c0.366,-4.87 1.501,-9.592 3.376,-14.096l12.39,0Zm59.824,35.24c0.944,-4.454 1.543,-9.184 1.734,-14.096l14.032,0c-0.366,4.87 -1.501,9.592 -3.376,14.096l-12.39,0Zm-29.912,-70.48c-29.193,-0 -52.86,23.667 -52.86,52.86c-0,29.193 23.667,52.86 52.86,52.86c29.193,0 52.86,-23.667 52.86,-52.86c0,-29.193 -23.667,-52.86 -52.86,-52.86" style="fill:#1b2229;fill-rule:nonzero;"/></svg>